<svg width="707" height="328" viewBox="0 0 707 328" fill="none" xmlns="http://www.w3.org/2000/svg">
<rect width="316" height="316" transform="translate(0.894531 0.539062)" fill="white"/>
<path fill-rule="evenodd" clip-rule="evenodd" d="M199.754 138.834C204.955 135.832 210.8 134.37 217.185 134.37C222.01 134.37 227.147 134.274 231.774 134.274C235.874 134.274 239.198 130.964 239.198 126.882V114.974C239.198 111.321 242.229 108.36 245.969 108.36H254.675C258.415 108.36 261.446 111.321 261.446 114.974C261.445 126.875 261.446 138.775 261.446 150.676C261.446 154.437 258.627 157.541 254.978 158.008H218.856C216.906 158.008 215.24 158.484 213.759 159.4C212.19 160.371 210.989 161.605 210.103 163.132C209.304 164.68 208.905 166.322 208.905 168.113C208.905 170.015 209.309 171.693 210.085 173.21C210.966 174.646 212.119 175.84 213.585 176.81C215.059 177.63 216.737 178.067 218.704 178.067H229.039C235.981 178.067 242.179 179.409 247.49 182.263C252.82 185.073 256.991 189.005 259.892 194.046C262.895 199.09 264.348 204.814 264.348 211.101C264.348 218.305 262.88 224.89 259.789 230.45C256.839 235.836 252.719 240.093 247.465 243.146L247.453 243.152L247.442 243.159C242.264 246.121 236.449 247.562 230.097 247.562H180.946C176.811 247.562 173.419 244.237 173.419 240.088V231.616C173.419 227.467 176.811 224.142 180.946 224.142H227.829C229.785 224.142 231.66 223.689 233.319 222.644C235.007 221.58 236.254 220.258 237.134 218.66L237.148 218.634L237.163 218.609C238.161 216.86 238.622 215.118 238.622 213.331C238.622 211.234 238.158 209.436 237.285 207.852C235.454 204.528 231.876 202.668 228.132 202.668L218.248 202.767C211.734 202.767 205.752 201.439 200.386 198.701L200.341 198.679L200.297 198.655C195.053 195.807 190.854 191.848 187.762 186.814C184.599 181.665 183.093 175.684 183.093 169.023C183.093 162.392 184.535 156.404 187.549 151.185C190.513 145.952 194.594 141.813 199.754 138.834Z" fill="url(#paint0_linear_1_128)"/>
<path fill-rule="evenodd" clip-rule="evenodd" d="M202.034 82.35H50.9745C46.7365 82.35 43.7974 85.9515 43.7974 89.7603V98.0598C43.7974 101.869 46.7365 105.47 50.9745 105.47C65.7447 105.47 80.5154 105.471 95.2852 105.471C99.3847 105.471 102.708 108.78 102.708 112.863C102.708 146.939 102.77 181.016 102.804 215.093C102.804 221.033 104.074 226.54 106.676 231.539L106.692 231.569L106.707 231.598C109.408 236.579 113.167 240.605 117.951 243.613L117.98 243.631L118.009 243.649C122.891 246.605 128.512 248.026 134.726 248.043L142.019 248.043C145.471 248.043 148.269 245.343 148.269 242.012V230.955C148.269 227.624 145.471 224.854 142.019 224.854H134.982C132.805 224.854 131.225 224.083 129.924 222.689C128.523 221.188 127.831 219.459 127.831 217.291C127.874 182.513 127.956 147.736 127.956 112.958C127.956 108.876 131.279 105.566 135.379 105.566C157.456 105.566 179.838 105.47 202.034 105.47C206.272 105.47 209.211 101.869 209.211 98.0598V89.7603C209.211 85.9515 206.272 82.35 202.034 82.35Z" fill="url(#paint1_linear_1_128)"/>
<defs>
<linearGradient id="paint0_linear_1_128" x1="211.629" y1="108.36" x2="259.155" y2="252.977" gradientUnits="userSpaceOnUse">
<stop offset="0.0653878" stop-color="#96B8FD"/>
<stop offset="0.366472" stop-color="#1249D8"/>
<stop offset="0.69" stop-color="#1249D8"/>
<stop offset="1" stop-color="#3DE8FF"/>
</linearGradient>
<linearGradient id="paint1_linear_1_128" x1="43.7974" y1="86.685" x2="209.194" y2="105.139" gradientUnits="userSpaceOnUse">
<stop offset="0.055" stop-color="#63D0FF"/>
<stop offset="0.468184" stop-color="#1249D8"/>
<stop offset="0.676929" stop-color="#1249D8"/>
<stop offset="0.955" stop-color="#FF86B9"/>
</linearGradient>
</defs>
</svg>
