<svg width="267" height="345" viewBox="0 0 267 345" fill="none" xmlns="http://www.w3.org/2000/svg">
<rect width="266" height="344" transform="translate(0 0.3125)" fill="white"/>
<path d="M232.831 296.256C232.831 297.746 234.022 298.955 235.49 298.955H243.015C244.484 298.955 245.674 297.746 245.674 296.256V243.838C245.674 242.348 244.484 241.139 243.015 241.139H235.49C234.022 241.139 232.831 242.348 232.831 243.838V296.256Z" fill="#144BDA"/>
<path d="M233.39 230.596C235.028 232.259 236.964 233.09 239.197 233.09C241.505 233.09 243.441 232.259 245.004 230.596C246.642 228.934 247.461 226.969 247.461 224.701C247.461 222.434 246.642 220.469 245.004 218.807C243.441 217.144 241.505 216.312 239.197 216.312C236.964 216.312 235.028 217.144 233.39 218.807C231.752 220.469 230.933 222.434 230.933 224.701C230.933 226.969 231.752 228.934 233.39 230.596Z" fill="#144BDA"/>
<path fill-rule="evenodd" clip-rule="evenodd" d="M194.306 253.813H205.78C207.627 253.813 209.125 255.314 209.125 257.166V265.813C209.125 276.859 200.194 285.814 189.177 285.814C187.288 285.814 185.757 284.278 185.757 282.385V262.385C185.757 257.651 189.585 253.813 194.306 253.813ZM172.648 262.385C172.648 250.392 182.345 240.67 194.306 240.67H205.78C214.867 240.67 222.234 248.056 222.234 257.166C222.234 271.977 222.208 286.788 222.208 301.598C222.208 313.591 212.511 323.312 200.55 323.312H175.906C174.401 323.312 173.181 322.093 173.181 320.589L173.181 312.893C173.181 311.389 174.401 310.17 175.906 310.17H200.55C205.272 310.17 209.099 306.332 209.099 301.598V294.053C209.049 293.029 208.749 292.601 207.417 293.459C202.189 296.933 195.919 298.957 189.177 298.957C180.048 298.957 172.648 291.537 172.648 282.385V262.385Z" fill="#144BDA"/>
<path d="M148.649 296.256C148.649 297.746 149.965 298.955 151.588 298.955H159.905C161.528 298.955 162.844 297.746 162.844 296.256V243.838C162.844 242.348 161.528 241.139 159.905 241.139H151.588C149.965 241.139 148.649 242.348 148.649 243.838V296.256Z" fill="#144BDA"/>
<path d="M149.266 230.596C151.077 232.259 153.216 233.09 155.685 233.09C158.236 233.09 160.375 232.259 162.104 230.596C163.914 228.934 164.819 226.969 164.819 224.701C164.819 222.434 163.914 220.469 162.104 218.807C160.375 217.144 158.236 216.312 155.685 216.312C153.216 216.312 151.077 217.144 149.266 218.807C147.456 220.469 146.551 222.434 146.551 224.701C146.551 226.969 147.456 228.934 149.266 230.596Z" fill="#144BDA"/>
<path fill-rule="evenodd" clip-rule="evenodd" d="M109.924 253.813H121.398C123.245 253.813 124.743 255.314 124.743 257.166V265.813C124.743 276.858 115.812 285.812 104.795 285.812C102.906 285.812 101.375 284.277 101.375 282.384V262.384C101.375 257.65 105.202 253.813 109.924 253.813ZM88.2661 262.384C88.2661 250.392 97.9627 240.67 109.924 240.67H121.398C130.485 240.67 137.851 248.056 137.851 257.166V259.489V265.813V297.022C137.851 298.089 136.69 298.955 135.257 298.955H127.914C126.481 298.955 125.319 298.089 125.319 297.022V293.938C125.307 292.707 125.078 292.116 123.61 293.067L123.61 293.066C118.27 296.779 111.786 298.955 104.795 298.955C95.6662 298.955 88.2661 291.536 88.2661 282.384V262.384Z" fill="#144BDA"/>
<path d="M26.4617 298.955C24.5621 298.955 23.0222 297.422 23.0222 295.531V224.086C23.0222 222.195 24.5621 220.662 26.4617 220.662H32.9532C34.8528 220.662 36.3927 222.195 36.3927 224.086V251.128C36.3927 253.019 37.9326 254.552 39.8322 254.552H46.8966C49.743 254.552 52.3272 254.03 54.6492 252.986C57.0462 251.867 58.9188 250.264 60.2671 248.176C61.6903 246.089 62.4019 243.591 62.4019 240.683V224.086C62.4019 222.195 63.9418 220.662 65.8414 220.662H72.3328C74.2324 220.662 75.7723 222.195 75.7723 224.086V240.571C75.7723 245.716 74.499 250.227 71.9522 254.104C70.0032 257.071 67.5717 259.537 64.6576 261.499C63.1376 262.523 62.4412 264.469 63.2059 266.13L71.7275 284.638C72.102 285.533 72.5889 286.167 73.1881 286.54C73.7874 286.913 74.5739 287.099 75.5476 287.099H78.7372C80.6368 287.099 82.1767 288.632 82.1767 290.523V295.531C82.1767 297.422 80.6368 298.955 78.7372 298.955H73.5252C70.0047 298.955 67.0834 298.209 64.7613 296.718C62.5142 295.227 60.7914 293.176 59.5929 290.566L49.3455 268.328C48.7532 267.043 47.4111 266.267 45.9977 266.407C43.9426 266.407 41.8874 266.407 39.8322 266.407C37.9326 266.407 36.3927 267.94 36.3927 269.831V295.531C36.3927 297.422 34.8528 298.955 32.9532 298.955H26.4617Z" fill="#144BDA"/>
<path fill-rule="evenodd" clip-rule="evenodd" d="M180.246 79.9468C185.623 76.8302 191.665 75.3125 198.266 75.3125C203.254 75.3125 208.564 75.2128 213.348 75.2128C217.586 75.2128 221.022 71.7772 221.022 67.5393V55.1779C221.022 51.3862 224.156 48.3125 228.022 48.3125H237.022C240.888 48.3125 244.022 51.3862 244.022 55.1779C244.021 67.5317 244.021 79.8857 244.021 92.2395C244.021 96.1428 241.107 99.3654 237.336 99.85H199.993C197.977 99.85 196.255 100.345 194.724 101.296C193.102 102.303 191.861 103.584 190.945 105.169C190.118 106.776 189.706 108.481 189.706 110.34C189.706 112.314 190.124 114.056 190.926 115.631C191.836 117.122 193.029 118.361 194.544 119.368C196.068 120.219 197.803 120.673 199.836 120.673H210.52C217.697 120.673 224.104 122.066 229.594 125.028C235.104 127.945 239.417 132.027 242.415 137.26C245.52 142.496 247.022 148.437 247.022 154.964C247.022 162.442 245.504 169.278 242.309 175.049C239.259 180.641 235 185.059 229.568 188.229L229.556 188.235L229.545 188.242C224.192 191.317 218.18 192.812 211.614 192.812H160.803C156.528 192.812 153.022 189.361 153.022 185.054V176.26C153.022 171.953 156.528 168.502 160.803 168.502H209.27C211.291 168.502 213.229 168.032 214.944 166.947C216.69 165.842 217.979 164.469 218.889 162.811L218.904 162.784L218.919 162.758C219.951 160.942 220.427 159.134 220.427 157.279C220.427 155.102 219.947 153.235 219.045 151.591C217.152 148.141 213.453 146.211 209.582 146.211L199.365 146.312C192.631 146.312 186.446 144.934 180.899 142.093L180.853 142.069L180.808 142.044C175.386 139.088 171.046 134.978 167.849 129.752C164.58 124.407 163.022 118.199 163.022 111.285C163.022 104.401 164.513 98.1848 167.629 92.7676C170.693 87.3352 174.911 83.0386 180.246 79.9468Z" fill="url(#paint0_linear_60_217)"/>
<path fill-rule="evenodd" clip-rule="evenodd" d="M182.603 21.3125H26.4418C22.0606 21.3125 19.0222 25.051 19.0222 29.0048V37.6202C19.0222 41.574 22.0606 45.3125 26.4418 45.3125C41.7108 45.3125 56.9804 45.3132 72.249 45.3132C76.4869 45.3132 79.9225 48.7487 79.9225 52.9867C79.9225 88.3602 79.9866 123.734 80.0222 159.108C80.0222 165.274 81.3349 170.991 84.0247 176.18L84.0405 176.211L84.0568 176.241C86.8488 181.412 90.7343 185.591 95.6804 188.714L95.71 188.732L95.74 188.751C100.787 191.819 106.598 193.295 113.022 193.312L120.561 193.312C124.129 193.312 127.022 190.509 127.022 187.052V175.573C127.022 172.116 124.129 169.24 120.561 169.24H113.286C111.036 169.24 109.403 168.44 108.057 166.993C106.609 165.435 105.894 163.64 105.894 161.39C105.938 125.288 106.023 89.1869 106.023 53.0857C106.023 48.8478 109.458 45.4122 113.696 45.4122C136.52 45.4122 159.658 45.3125 182.603 45.3125C186.984 45.3125 190.022 41.574 190.022 37.6202V29.0048C190.022 25.051 186.984 21.3125 182.603 21.3125Z" fill="url(#paint1_linear_60_217)"/>
<defs>
<linearGradient id="paint0_linear_60_217" x1="192.522" y1="48.3125" x2="242.022" y2="198.313" gradientUnits="userSpaceOnUse">
<stop offset="0.0653878" stop-color="#96B8FD"/>
<stop offset="0.366472" stop-color="#1249D8"/>
<stop offset="0.69" stop-color="#1249D8"/>
<stop offset="1" stop-color="#3DE8FF"/>
</linearGradient>
<linearGradient id="paint1_linear_60_217" x1="19.0222" y1="25.8125" x2="190.022" y2="44.8125" gradientUnits="userSpaceOnUse">
<stop offset="0.055" stop-color="#63D0FF"/>
<stop offset="0.468184" stop-color="#1249D8"/>
<stop offset="0.676929" stop-color="#1249D8"/>
<stop offset="0.955" stop-color="#FF86B9"/>
</linearGradient>
</defs>
</svg>
