<svg width="267" height="345" fill="none" xmlns="http://www.w3.org/2000/svg">
  <path
    d="M233.45 296.256c0 1.49 1.19 2.699 2.659 2.699h7.525c1.468 0 2.659-1.209 2.659-2.699v-52.418c0-1.49-1.191-2.699-2.659-2.699h-7.525c-1.469 0-2.659 1.209-2.659 2.699v52.418zM234.008 230.596c1.638 1.663 3.574 2.494 5.807 2.494 2.309 0 4.244-.831 5.808-2.494 1.638-1.662 2.457-3.627 2.457-5.895 0-2.267-.819-4.232-2.457-5.894-1.564-1.663-3.499-2.495-5.808-2.495-2.233 0-4.169.832-5.807 2.495-1.638 1.662-2.457 3.627-2.457 5.894 0 2.268.819 4.233 2.457 5.895z"
    fill="#144BDA" />
  <path fill-rule="evenodd" clip-rule="evenodd"
    d="M194.925 253.813h11.474a3.348 3.348 0 013.344 3.353v8.647c0 11.046-8.931 20.001-19.948 20.001a3.425 3.425 0 01-3.42-3.429v-20c0-4.734 3.828-8.572 8.55-8.572zm-21.658 8.572c0-11.993 9.696-21.715 21.658-21.715h11.474c9.087 0 16.453 7.386 16.453 16.496 0 14.811-.026 29.622-.026 44.432 0 11.993-9.696 21.714-21.658 21.714h-24.644a2.724 2.724 0 01-2.724-2.723v-7.696a2.724 2.724 0 012.724-2.723h24.644c4.722 0 8.55-3.838 8.55-8.572v-7.545c-.05-1.024-.35-1.452-1.683-.594a32.844 32.844 0 01-18.24 5.498c-9.128 0-16.528-7.42-16.528-16.572v-20z"
    fill="#144BDA" />
  <path
    d="M149.267 296.256c0 1.49 1.316 2.699 2.939 2.699h8.317c1.624 0 2.939-1.209 2.939-2.699v-52.418c0-1.49-1.315-2.699-2.939-2.699h-8.317c-1.623 0-2.939 1.209-2.939 2.699v52.418zM149.885 230.596c1.81 1.663 3.95 2.494 6.418 2.494 2.551 0 4.691-.831 6.419-2.494 1.81-1.662 2.715-3.627 2.715-5.895 0-2.267-.905-4.232-2.715-5.894-1.728-1.663-3.868-2.495-6.419-2.495-2.468 0-4.608.832-6.418 2.495-1.811 1.662-2.716 3.627-2.716 5.894 0 2.268.905 4.233 2.716 5.895z"
    fill="#144BDA" />
  <path fill-rule="evenodd" clip-rule="evenodd"
    d="M110.542 253.813h11.475a3.348 3.348 0 013.344 3.353v8.647c0 11.045-8.931 19.999-19.948 19.999a3.424 3.424 0 01-3.42-3.428v-20c0-4.734 3.828-8.571 8.549-8.571zm-21.657 8.571c0-11.992 9.696-21.714 21.657-21.714h11.475c9.087 0 16.453 7.386 16.453 16.496v39.856c0 1.067-1.162 1.933-2.595 1.933h-7.343c-1.433 0-2.595-.866-2.595-1.933v-3.084c-.012-1.231-.24-1.822-1.709-.871l.001-.001a32.85 32.85 0 01-18.816 5.889c-9.128 0-16.528-7.419-16.528-16.571v-20z"
    fill="#144BDA" />
  <path
    d="M27.08 298.955c-1.9 0-3.44-1.533-3.44-3.424v-71.445a3.432 3.432 0 013.44-3.424h6.492c1.9 0 3.44 1.533 3.44 3.424v27.042a3.432 3.432 0 003.439 3.424h7.064c2.846 0 5.43-.522 7.753-1.566 2.397-1.119 4.27-2.722 5.617-4.81 1.424-2.087 2.135-4.585 2.135-7.493v-16.597a3.432 3.432 0 013.44-3.424h6.491c1.9 0 3.44 1.533 3.44 3.424v16.485c0 5.145-1.274 9.656-3.82 13.533a26.084 26.084 0 01-7.295 7.395c-1.52 1.024-2.216 2.97-1.452 4.631l8.522 18.508c.374.895.861 1.529 1.46 1.902.6.373 1.386.559 2.36.559h3.19c1.9 0 3.44 1.533 3.44 3.424v5.008a3.432 3.432 0 01-3.44 3.424h-5.212c-3.52 0-6.442-.746-8.764-2.237-2.247-1.491-3.97-3.542-5.169-6.152l-10.247-22.238a3.328 3.328 0 00-3.348-1.921h-6.165c-1.9 0-3.44 1.533-3.44 3.424v25.7a3.432 3.432 0 01-3.44 3.424h-6.49z"
    fill="#144BDA" />
  <path fill-rule="evenodd" clip-rule="evenodd"
    d="M180.864 79.947c5.377-3.117 11.419-4.635 18.021-4.635 4.988 0 10.298-.1 15.081-.1a7.675 7.675 0 007.675-7.673V55.178c0-3.792 3.134-6.865 7-6.865h9c3.866 0 7 3.073 7 6.865-.002 12.354-.001 24.708-.001 37.062a7.675 7.675 0 01-6.686 7.61h-37.342c-2.016 0-3.738.495-5.269 1.446-1.622 1.007-2.864 2.288-3.78 3.873a11.095 11.095 0 00-1.239 5.171c0 1.974.418 3.716 1.22 5.291a11.85 11.85 0 003.619 3.737c1.524.851 3.258 1.305 5.292 1.305h10.683c7.177 0 13.585 1.393 19.074 4.355 5.51 2.917 9.823 6.999 12.822 12.232 3.105 5.236 4.607 11.177 4.607 17.704 0 7.478-1.518 14.314-4.714 20.085-3.049 5.592-7.309 10.01-12.74 13.18l-.012.006-.012.007c-5.352 3.075-11.364 4.57-17.931 4.57h-50.811c-4.275 0-7.78-3.451-7.78-7.758v-8.794c0-4.307 3.505-7.758 7.78-7.758h48.467c2.021 0 3.96-.47 5.675-1.555 1.746-1.105 3.034-2.478 3.944-4.136l.015-.027.015-.026c1.032-1.816 1.509-3.624 1.509-5.479 0-2.177-.48-4.044-1.382-5.688-1.894-3.45-5.592-5.38-9.463-5.38l-10.217.101c-6.735 0-12.919-1.378-18.467-4.219l-.045-.024-.046-.025c-5.422-2.956-9.762-7.066-12.958-12.292-3.27-5.345-4.827-11.553-4.827-18.467 0-6.884 1.49-13.1 4.606-18.517 3.065-5.433 7.283-9.73 12.617-12.821z"
    fill="url(#prefix__paint0_linear_60_226)" />
  <path fill-rule="evenodd" clip-rule="evenodd"
    d="M183.221 21.313H27.061c-4.382 0-7.42 3.738-7.42 7.692v8.615c0 3.954 3.038 7.693 7.42 7.693h45.806a7.673 7.673 0 017.674 7.674c0 35.373.064 70.747.1 106.121 0 6.166 1.312 11.883 4.002 17.072l.016.031.016.03c2.792 5.171 6.678 9.35 11.624 12.473l.03.018.03.019c5.047 3.068 10.857 4.544 17.282 4.561h7.538c3.569 0 6.462-2.803 6.462-6.26v-11.479c0-3.457-2.893-6.333-6.462-6.333h-7.274c-2.251 0-3.884-.8-5.229-2.247-1.449-1.558-2.163-3.353-2.163-5.603.044-36.102.128-72.203.128-108.304a7.674 7.674 0 017.674-7.674c22.823 0 45.961-.1 68.906-.1 4.381 0 7.42-3.738 7.42-7.692v-8.615c0-3.954-3.039-7.692-7.42-7.692z"
    fill="url(#prefix__paint1_linear_60_226)" />
  <defs>
    <linearGradient id="prefix__paint0_linear_60_226" x1="193.141" y1="48.313" x2="242.641" y2="198.313"
      gradientUnits="userSpaceOnUse">
      <stop offset=".065" stop-color="#96B8FD" />
      <stop offset=".366" stop-color="#1249D8" />
      <stop offset=".69" stop-color="#1249D8" />
      <stop offset="1" stop-color="#3DE8FF" />
    </linearGradient>
    <linearGradient id="prefix__paint1_linear_60_226" x1="19.641" y1="25.813" x2="190.641" y2="44.813"
      gradientUnits="userSpaceOnUse">
      <stop offset=".055" stop-color="#63D0FF" />
      <stop offset=".468" stop-color="#1249D8" />
      <stop offset=".677" stop-color="#1249D8" />
      <stop offset=".955" stop-color="#FF86B9" />
    </linearGradient>
  </defs>
</svg>