<svg width="94" height="72" viewBox="0 0 94 72" fill="none" xmlns="http://www.w3.org/2000/svg">
  <path fill-rule="evenodd" clip-rule="evenodd"
    d="M59.4939 34.8118C52.4073 59.6335 38.1045 66.1899 37.6641 66.4444C38.7416 62.8138 38.4908 62.7478 40.5978 57.76L37.2337 58.9059C36.8347 57.6852 37.4626 55.853 33.1774 56.0645C33.1374 56.0665 29.4752 57.3573 30.1819 52.9067C31.0047 47.7242 36.6429 43.677 44.246 38.0435C40.0926 39.3445 35.1161 40.2724 28.7204 42.9802C11.3296 50.3431 10.7284 66.9462 10.0718 72C9.76861 60.255 9.92536 58.7594 16.843 46.575C9.85377 51.9556 9.26616 52.979 1.28464 66.4037C1.27866 66.3788 -3.10026 56.5541 4.34524 44.739C5.77678 42.4675 13.4118 30.9999 27.3108 26.484C38.5233 22.841 42.5353 23.9166 53.0648 21.8632C53.3857 17.2298 55.9455 12.8853 60.141 10.4677L53.2683 6.75048C53.5831 2.95064 55.6398 0.734972 59.3246 0L65.04 8.58579C70.2587 7.15521 77.5105 6.13098 79.8358 5.8838C80.0557 5.03328 81.7457 4.42693 83.7678 4.50705C85.7673 4.58617 87.391 5.30877 87.575 6.16153C89.9995 6.80137 91.9973 8.17085 93.1783 10.773C94.3377 13.3276 94.2015 15.7202 93.1994 17.9602C93.4738 18.7636 92.9413 20.2849 91.8245 21.6993C90.6717 23.1594 89.2697 24.0327 88.4404 23.8753C88.3964 23.9136 88.3524 23.9519 88.3082 23.99C86.7181 25.3615 80.6369 30.949 75.9199 34.1177L78.6405 44.1373C75.6818 46.4722 72.6757 46.5959 69.6188 44.3539L71.3699 36.4469C67.2809 37.7397 62.937 37.0503 59.4939 34.8118Z"
    fill="url(#paint0_linear_1_127)" />
  <defs>
    <linearGradient id="paint0_linear_1_127" x1="89.663" y1="9.94985" x2="6.3816" y2="68.9058"
      gradientUnits="userSpaceOnUse">
      <stop stop-color="#F67E20" />
      <stop offset="0.25" stop-color="#F88A17" />
      <stop offset="0.54" stop-color="#FFAB00" />
      <stop offset="1" stop-color="white" />
    </linearGradient>
  </defs>
</svg>