<svg width="171" height="76" viewBox="0 0 171 76" fill="none" xmlns="http://www.w3.org/2000/svg">
  <path fill-rule="evenodd" clip-rule="evenodd"
    d="M29.4407 51.8519C31.0857 48.2929 34.5318 45.755 38.5727 45.3722L34.869 40.1619C36.4247 37.588 38.667 36.7503 41.5513 37.5353L42.6221 45.6621C47.0509 46.511 53.2203 48.698 54.806 49.2048C54.8501 49.2189 54.8942 49.2331 54.9381 49.2474C55.4982 48.8771 56.7935 49.0795 58.0857 49.7857C59.3375 50.4698 60.1935 51.4119 60.2381 52.0808C61.6585 53.4007 62.4905 55.0988 62.422 57.3145C62.3522 59.5715 61.3062 61.184 59.724 62.3975C59.8501 63.0745 58.8804 64.1011 57.4383 64.7757C55.9799 65.458 54.5551 65.5385 54.1336 64.9878C52.3527 65.5256 46.7212 67.0186 42.4565 67.5886L40.8924 75.5967C37.9653 76.1993 35.779 75.2226 34.3854 72.5561L38.2879 67.7317C33.711 67.1758 30.011 63.8783 28.8159 59.5729C25.9858 62.9597 20.9826 64.7401 15.7477 63.784C10.1266 62.7574 5.86723 58.8732 4.72531 54.2901C-1.33386 46.9901 -0.830585 35.9912 6.15706 28.9775C1.69771 35.6463 2.70277 45.6735 9.24206 52.195C10.5299 53.4793 11.9529 54.5485 13.4588 55.4032C12.3653 54.5569 11.3191 53.5876 10.3445 52.4999C3.70369 45.0888 2.8843 34.9713 8.51595 29.9205C6.24433 34.771 8.17575 42.9227 13.9001 49.311C14.1857 49.6297 14.4767 49.9395 14.7725 50.2404C14.6453 50.0845 14.5194 49.9264 14.3951 49.7661C10.2247 44.3851 8.97336 38.016 10.8611 33.818C10.929 29.201 12.8491 25.1566 16.4306 23.1146C13.6983 27.1426 13.9862 34.8103 17.8893 41.6592C20.8693 46.8885 25.3339 50.5472 29.4407 51.8519Z"
    fill="url(#paint0_linear_0_1)" />
  <path fill-rule="evenodd" clip-rule="evenodd"
    d="M130.399 38.8868C106.229 47.9994 92.3548 40.3234 91.8854 40.1185C95.4454 38.8189 95.3472 38.576 100.616 37.2989L97.6701 35.2562C98.4084 34.2017 100.256 33.6142 97.5043 30.265C97.4786 30.2337 94.2373 28.0361 98.2313 25.9447C102.882 23.5095 109.524 25.6596 118.621 28.4538C115.076 25.8638 111.334 22.3829 105.309 18.8164C88.9285 9.11864 75.2547 18.571 70.8072 21.0642C80.0412 13.7867 81.3347 13.0184 95.2713 11.3347C86.7465 8.88701 85.5719 9.02306 70 10.5863C70.0163 10.5666 75.2551 1.13287 89.2137 0.0984362C91.8974 -0.100404 105.691 -0.773127 117.686 7.797C127.362 14.7105 128.917 18.6087 136.907 25.92C140.815 23.4061 145.841 22.8816 150.307 24.8372L149.146 17.0372C152.383 15.0175 155.398 15.3592 158.207 17.908L154.767 27.684C159.058 31.0605 164.249 36.3294 165.848 38.0675C166.662 37.7366 168.166 38.7443 169.321 40.4324C170.462 42.1018 170.861 43.8513 170.288 44.5111C171.236 46.8607 171.341 49.3009 169.966 51.8169C168.617 54.2866 166.617 55.6086 164.217 56.1368C163.738 56.8403 162.198 57.3193 160.391 57.2602C158.525 57.1993 156.981 56.585 156.607 55.8181C156.55 55.8054 156.493 55.7925 156.436 55.7795C154.378 55.3109 146.234 53.7236 140.852 51.7945L134.458 60C130.803 58.998 128.893 56.6338 128.849 52.812L136.243 49.4985C132.743 46.9559 130.679 43.0197 130.399 38.8868Z"
    fill="url(#paint1_linear_0_1)" />
  <defs>
    <linearGradient id="paint0_linear_0_1" x1="64.1865" y1="57.465" x2="-0.0241755" y2="41.4256"
      gradientUnits="userSpaceOnUse">
      <stop stop-color="#6FBF65" />
      <stop offset="0.33" stop-color="#64C377" />
      <stop offset="0.46" stop-color="#4BCD9E" />
      <stop offset="0.57" stop-color="#33D6C4" />
      <stop offset="1" stop-color="white" />
    </linearGradient>
    <linearGradient id="paint1_linear_0_1" x1="162.463" y1="47.2145" x2="68.65" y2="8.18713"
      gradientUnits="userSpaceOnUse">
      <stop stop-color="#ED5151" />
      <stop offset="0.3" stop-color="#EF6877" />
      <stop offset="0.64" stop-color="#F6A8DD" />
      <stop offset="0.84" stop-color="#F8BBE4" />
      <stop offset="1" stop-color="white" />
    </linearGradient>
  </defs>
</svg>