<svg width="65" height="58" viewBox="0 0 65 58" fill="none" xmlns="http://www.w3.org/2000/svg">
  <path fill-rule="evenodd" clip-rule="evenodd"
    d="M61.1242 51.4121C60.7215 53.5913 59.6513 55.4407 57.4472 56.6486C55.2833 57.8344 53.1769 57.8673 51.1476 57.1267C50.4613 57.4201 49.0929 57.0477 47.78 56.1532C46.4246 55.2298 45.5676 54.0493 45.6514 53.3077C45.615 53.2715 45.5785 53.2351 45.5422 53.1985C44.236 51.8839 38.9407 46.878 35.8549 42.9205L27.2485 45.9605C25.0085 43.5004 24.7039 40.8571 26.4698 38.0179L33.5159 39.0567C31.8489 34.8617 32.6214 30.1687 35.3196 26.7439C31.9445 23.3353 26.0526 20.7602 19.3541 20.4476C10.581 20.0381 2.82676 23.6219 0.214026 28.36C0.425973 23.783 3.46639 19.8409 8.01331 17.4441C11.2225 13.4565 18.1763 11.482 25.6282 12.8969C25.8503 12.9391 26.071 12.9839 26.2901 13.0313C25.8417 12.8902 25.3869 12.7584 24.9259 12.6363C15.6872 10.1909 6.62019 12.3913 2.95795 17.0882C5.11689 8.96288 15.5712 4.66937 26.289 7.50624C27.862 7.92259 29.3538 8.46958 30.7475 9.12548C29.1366 8.06548 27.3548 7.19569 25.428 6.56835C15.6443 3.38313 5.18563 7.44722 0.827382 15.2281C4.24706 4.76942 14.906 -1.27863 25.2189 1.03841C30.3449 -0.143272 36.3567 2.11491 40.2229 7.16334C43.8234 11.865 44.5913 17.718 42.6644 22.2295C47.5418 21.2405 52.6881 23.2408 55.5583 27.4928L58.3684 21.194C61.7202 21.2286 63.7969 22.9008 64.6817 26.1036L57.5279 31.693C59.1227 36.204 60.494 42.5341 60.8625 44.569C61.6224 44.7085 62.2643 46.1602 62.3261 47.9487C62.3872 49.7172 61.8597 51.1953 61.1242 51.4121Z"
    fill="url(#paint0_linear_2_310)" />
  <defs>
    <linearGradient id="paint0_linear_2_310" x1="55.4683" y1="53.3026" x2="12.5546" y2="2.86947"
      gradientUnits="userSpaceOnUse">
      <stop stop-color="#144BDA" />
      <stop offset="0.44" stop-color="#5B82E5" />
      <stop offset="1" stop-color="white" />
    </linearGradient>
  </defs>
</svg>