<svg width="90" height="38" viewBox="0 0 90 38" fill="none" xmlns="http://www.w3.org/2000/svg">
  <g clip-path="url(#clip0_2_302)">
    <path
      d="M55.2329 23.5356C55.2329 23.7743 55.4258 23.9681 55.6645 23.9681H56.885C57.1228 23.9681 57.3166 23.7743 57.3166 23.5356V15.142C57.3166 14.9033 57.1237 14.7095 56.885 14.7095H55.6645C55.4267 14.7095 55.2329 14.9033 55.2329 15.142V23.5356Z"
      fill="#1249D8" />
    <path
      d="M55.3237 13.0211C55.5892 13.2875 55.9032 13.4207 56.2656 13.4207C56.628 13.4207 56.9541 13.2875 57.2076 13.0211C57.4731 12.7547 57.6063 12.4398 57.6063 12.0774C57.6063 11.715 57.4731 11.3993 57.2076 11.1337C56.9541 10.8673 56.6401 10.7341 56.2656 10.7341C55.8911 10.7341 55.5892 10.8673 55.3237 11.1337C55.0581 11.4002 54.9249 11.715 54.9249 12.0774C54.9249 12.4398 55.0581 12.7555 55.3237 13.0211Z"
      fill="#1249D8" />
    <path fill-rule="evenodd" clip-rule="evenodd"
      d="M49.1081 16.7136H50.9297C51.223 16.7136 51.4608 16.9523 51.4608 17.2464V18.6191C51.4608 20.3733 50.0432 21.7953 48.2942 21.7953C47.9941 21.7953 47.751 21.5513 47.751 21.2512V18.0759C47.751 17.3243 48.3582 16.7145 49.1081 16.7145V16.7136ZM45.6699 18.0742C45.6699 16.1696 47.2087 14.6265 49.1081 14.6265H50.9297C52.3725 14.6265 53.5419 15.7994 53.5419 17.2456C53.5419 19.5974 53.5376 21.9492 53.5376 24.301C53.5376 26.2057 51.9988 27.7488 50.0994 27.7488H46.1872C45.9484 27.7488 45.7547 27.555 45.7547 27.3163V26.0941C45.7547 25.8554 45.9484 25.6616 46.1872 25.6616H50.0994C50.8484 25.6616 51.4565 25.0527 51.4565 24.3002V23.1022C51.4487 22.9396 51.4011 22.8713 51.1892 23.0079C50.3597 23.5598 49.3642 23.8807 48.2942 23.8807C46.8454 23.8807 45.6708 22.7026 45.6708 21.2495V18.0742H45.6699Z"
      fill="#1249D8" />
    <path
      d="M41.8459 23.5356C41.8459 23.7743 42.0518 23.9681 42.3052 23.9681H43.6053C43.8587 23.9681 44.0646 23.7743 44.0646 23.5356V15.142C44.0646 14.9033 43.8587 14.7095 43.6053 14.7095H42.3052C42.0518 14.7095 41.8459 14.9033 41.8459 15.142V23.5356Z"
      fill="#1249D8" />
    <path
      d="M41.9428 13.0211C42.2256 13.2875 42.5603 13.4207 42.9453 13.4207C43.3302 13.4207 43.6779 13.2875 43.9477 13.0211C44.2306 12.7547 44.3724 12.4398 44.3724 12.0774C44.3724 11.715 44.2306 11.3993 43.9477 11.1337C43.6779 10.8673 43.3431 10.7341 42.9453 10.7341C42.5474 10.7341 42.2256 10.8673 41.9428 11.1337C41.6599 11.4002 41.5181 11.715 41.5181 12.0774C41.5181 12.4398 41.6599 12.7555 41.9428 13.0211Z"
      fill="#1249D8" />
    <path fill-rule="evenodd" clip-rule="evenodd"
      d="M35.6147 16.7136H37.4363C37.7296 16.7136 37.9674 16.9523 37.9674 17.2464V18.6191C37.9674 20.3733 36.5498 21.7953 34.8008 21.7953C34.5007 21.7953 34.2576 21.5513 34.2576 21.2512V18.0759C34.2576 17.3243 34.8648 16.7145 35.6147 16.7145V16.7136ZM32.1765 18.0742C32.1765 16.1696 33.7161 14.6265 35.6147 14.6265H37.4363C38.8791 14.6265 40.0485 15.7994 40.0485 17.2456V23.5745C40.0485 23.744 39.8643 23.8815 39.6368 23.8815H38.4708C38.2433 23.8815 38.0591 23.744 38.0591 23.5745V23.0849C38.0574 22.8894 38.0211 22.796 37.7875 22.9465C36.9399 23.5356 35.9105 23.8815 34.8008 23.8815C33.352 23.8815 32.1774 22.7035 32.1774 21.2503V18.0751L32.1765 18.0742Z"
      fill="#1249D8" />
    <path
      d="M22.2588 23.8815C21.9561 23.8815 21.7104 23.6359 21.7104 23.3332V11.888C21.7104 11.5853 21.9561 11.3396 22.2588 11.3396H23.2933C23.5961 11.3396 23.8417 11.5853 23.8417 11.888V16.2197C23.8417 16.5225 24.0874 16.7681 24.3901 16.7681H25.5163C25.9695 16.7681 26.3821 16.6842 26.7523 16.5173C27.1346 16.3382 27.433 16.0813 27.6475 15.7466C27.8742 15.4118 27.9875 15.0122 27.9875 14.546V11.8871C27.9875 11.5844 28.2331 11.3387 28.5359 11.3387H29.5703C29.8731 11.3387 30.1187 11.5844 30.1187 11.8871V14.5279C30.1187 15.3522 29.9155 16.0744 29.5098 16.6963C29.1993 17.1712 28.8118 17.5665 28.3473 17.8813C28.1051 18.0456 27.9944 18.357 28.1163 18.6234L29.4743 21.5885C29.534 21.7321 29.6119 21.8333 29.707 21.893C29.8022 21.9527 29.9276 21.9829 30.0833 21.9829H30.5919C30.8946 21.9829 31.1402 22.2286 31.1402 22.5313V23.3332C31.1402 23.6359 30.8946 23.8815 30.5919 23.8815H29.7615C29.2001 23.8815 28.7348 23.7622 28.3646 23.5234C28.0065 23.2847 27.7314 22.956 27.5411 22.5383L25.9081 18.9763C25.8138 18.7705 25.6002 18.6459 25.3744 18.6684H24.3918C24.0891 18.6684 23.8434 18.9141 23.8434 19.2168V23.334C23.8434 23.6368 23.5978 23.8824 23.2951 23.8824H22.2606L22.2588 23.8815Z"
      fill="#1249D8" />
    <path fill-rule="evenodd" clip-rule="evenodd"
      d="M13.9449 14.0755C14.4102 13.8057 14.9327 13.6751 15.5035 13.6751C15.9352 13.6751 16.3945 13.6664 16.8079 13.6664C17.1746 13.6664 17.4713 13.3689 17.4713 13.003V11.9339C17.4713 11.6061 17.7421 11.3397 18.0768 11.3397H18.8553C19.19 11.3397 19.4607 11.6052 19.4607 11.9339C19.4607 13.0021 19.4607 14.0712 19.4607 15.1394C19.4607 15.4768 19.209 15.7561 18.8821 15.7977H15.6523C15.4776 15.7977 15.3288 15.84 15.1965 15.9231C15.0564 16.0104 14.9491 16.1212 14.8695 16.2578C14.7977 16.3971 14.7623 16.5441 14.7623 16.705C14.7623 16.8754 14.7986 17.0268 14.8678 17.1626C14.9465 17.2915 15.0494 17.3987 15.1809 17.4861C15.3124 17.5596 15.4629 17.5994 15.6385 17.5994H16.5623C17.1833 17.5994 17.7369 17.7196 18.2117 17.9765C18.6883 18.2291 19.0611 18.582 19.3206 19.0343C19.5888 19.4876 19.7194 20.0014 19.7194 20.5653C19.7194 21.2123 19.5879 21.804 19.312 22.303C19.0482 22.7865 18.6797 23.1689 18.21 23.4431H18.2091L18.2083 23.4439C17.7455 23.7095 17.2257 23.8392 16.6574 23.8392H12.2625C11.8923 23.8392 11.5896 23.5408 11.5896 23.168V22.4077C11.5896 22.0349 11.8932 21.7365 12.2625 21.7365H16.455C16.6297 21.7365 16.7975 21.6958 16.9454 21.6024C17.0968 21.5073 17.2084 21.3879 17.2871 21.2443V21.2417L17.2897 21.2391C17.3788 21.0817 17.4203 20.926 17.4203 20.7651C17.4203 20.5766 17.3788 20.4157 17.3009 20.273C17.1375 19.9746 16.8174 19.8076 16.4827 19.8076L15.5987 19.8163C15.0166 19.8163 14.4812 19.6969 14.0011 19.4513L13.9968 19.4495L13.9933 19.4469C13.5245 19.1909 13.1491 18.8354 12.8723 18.3839C12.5895 17.9211 12.4546 17.3849 12.4546 16.7863C12.4546 16.1878 12.5834 15.6532 12.8533 15.1844C13.1188 14.7147 13.483 14.3428 13.9449 14.0755Z"
      fill="url(#paint0_linear_2_302)" />
    <path fill-rule="evenodd" clip-rule="evenodd"
      d="M14.149 9.00421H0.641801C0.262948 9.00421 0 9.32771 0 9.66937V10.415C0 10.7566 0.262948 11.0801 0.641801 11.0801C1.9626 11.0801 3.28339 11.0801 4.60418 11.0801C4.97093 11.0801 5.26761 11.3777 5.26761 11.7435C5.26761 14.8029 5.2728 17.8631 5.27626 20.9225C5.27626 21.4562 5.38957 21.9501 5.62224 22.399V22.4016L5.62484 22.4042C5.86616 22.8514 6.20263 23.2129 6.62992 23.4828L6.63252 23.4845L6.63511 23.4862C7.07192 23.7518 7.57446 23.8789 8.12976 23.8807H8.78194C9.09073 23.8807 9.34071 23.6385 9.34071 23.3392V22.3462C9.34071 22.047 9.09073 21.7987 8.78194 21.7987H8.15312C7.9585 21.7987 7.81751 21.7295 7.70074 21.6041C7.57532 21.4692 7.51391 21.3143 7.51391 21.1197C7.51737 17.9972 7.52516 14.8747 7.52516 11.7522C7.52516 11.3854 7.82184 11.0888 8.18858 11.0888C10.1624 11.0888 12.1639 11.0801 14.149 11.0801C14.5279 11.0801 14.7908 10.7566 14.7908 10.415V9.66937C14.7908 9.32771 14.5279 9.00421 14.149 9.00421Z"
      fill="url(#paint1_linear_2_302)" />
    <path
      d="M60.7937 22.8808C60.7937 19.4538 64.8815 19.0542 64.8815 17.2784C64.8815 16.6176 64.4689 16.1358 63.6567 16.1358C62.9682 16.1358 62.4596 16.3426 62.1699 16.4524C61.881 16.5761 61.5229 16.5623 61.3715 16.2318L61.1648 15.7777C61.0134 15.4335 61.1648 15.1031 61.4952 14.9517C61.9355 14.7588 62.7338 14.4699 63.7527 14.4699C65.5423 14.4699 66.877 15.5987 66.877 17.2776C66.877 19.8794 62.9267 20.7876 62.9267 22.3428H66.2438C66.6158 22.3428 66.8631 22.591 66.8631 22.9621V23.334C66.8631 23.706 66.6149 23.9533 66.2438 23.9533H61.4122C61.0402 23.9533 60.7928 23.706 60.7928 23.334V22.8799L60.7937 22.8808Z"
      fill="#1249D8" />
    <path
      d="M68.3085 18.2697C68.3085 15.6679 69.836 14.4708 71.7354 14.4708C73.6349 14.4708 75.1624 15.6679 75.1624 18.2697V20.3205C75.1624 22.9361 73.5934 24.1332 71.7354 24.1332C69.8775 24.1332 68.3085 22.9361 68.3085 20.3205V18.2697ZM73.2085 20.3205V18.2697C73.2085 16.6868 72.5753 16.1358 71.7354 16.1358C70.8956 16.1358 70.2624 16.6868 70.2624 18.2697V20.3205C70.2624 21.9034 70.8956 22.4682 71.7354 22.4682C72.5753 22.4682 73.2085 21.9042 73.2085 20.3205Z"
      fill="#1249D8" />
    <path
      d="M76.3466 22.8808C76.3466 19.4538 80.4344 19.0542 80.4344 17.2784C80.4344 16.6176 80.0218 16.1358 79.2096 16.1358C78.5211 16.1358 78.0125 16.3426 77.7227 16.4524C77.4338 16.5761 77.0757 16.5623 76.9244 16.2318L76.7176 15.7777C76.5663 15.4335 76.7176 15.1031 77.0481 14.9517C77.4883 14.7588 78.2867 14.4699 79.3056 14.4699C81.0952 14.4699 82.4298 15.5987 82.4298 17.2776C82.4298 19.8794 78.4796 20.7876 78.4796 22.3428H81.7967C82.1686 22.3428 82.416 22.591 82.416 22.9621V23.334C82.416 23.706 82.1677 23.9533 81.7967 23.9533H76.965C76.5931 23.9533 76.3457 23.706 76.3457 23.334V22.8799L76.3466 22.8808Z"
      fill="#1249D8" />
    <path
      d="M83.8337 23.0875L83.9436 22.6196C84.0266 22.2753 84.3562 22.124 84.7143 22.22C85.0032 22.2892 85.6501 22.4674 86.4208 22.4674C87.233 22.4674 88.0037 21.9441 88.0037 20.8845C88.0037 19.9624 87.3429 19.549 86.2418 19.549H84.8518C84.4798 19.549 84.2325 19.3016 84.2463 18.9297L84.3838 15.2545C84.3977 14.8825 84.6451 14.649 85.017 14.649H89.1186C89.4906 14.649 89.6826 14.8696 89.6143 15.2545L89.5182 15.7916C89.449 16.1635 89.2432 16.3149 88.8712 16.3149H86.1319L86.0498 17.967H86.4217C88.5279 17.967 90 18.889 90 20.8715C90 23.0875 88.1421 24.1333 86.49 24.1333C85.5541 24.1333 84.7004 23.9404 84.274 23.8305C83.9159 23.7345 83.7507 23.4448 83.8337 23.0875Z"
      fill="#1249D8" />
    <path fill-rule="evenodd" clip-rule="evenodd"
      d="M43.1087 29.4112C42.7791 29.6923 41.3139 31.0313 40.5225 31.3937C39.3219 31.9438 37.9008 31.4153 37.3506 30.2148C36.8005 29.0142 37.329 27.5931 38.5296 27.0429C39.3176 26.6823 41.281 26.4098 41.7144 26.3683C42.6528 26.2783 43.5481 26.3536 43.933 27.1935C44.3179 28.0333 43.8603 28.7694 43.1078 29.4121L43.1087 29.4112Z"
      fill="url(#paint2_linear_2_302)" />
    <path fill-rule="evenodd" clip-rule="evenodd"
      d="M38.3376 27.1416L37.1733 26.5171C37.227 25.8796 37.5755 25.5068 38.1992 25.384L39.1671 26.825C38.9188 26.8925 38.6974 26.9651 38.5296 27.0421C38.463 27.0724 38.399 27.1052 38.3367 27.1407L38.3376 27.1416Z"
      fill="url(#paint3_linear_2_302)" />
    <path fill-rule="evenodd" clip-rule="evenodd"
      d="M40.2397 31.5027C40.3348 31.4724 40.43 31.437 40.5225 31.3937C40.6661 31.328 40.8322 31.2294 41.0104 31.1118L41.4714 32.7941C40.9706 33.1859 40.4611 33.2067 39.943 32.8304L40.2397 31.5027Z"
      fill="url(#paint4_linear_2_302)" />
    <path fill-rule="evenodd" clip-rule="evenodd"
      d="M41.6738 26.3717C41.711 26.229 41.9973 26.1269 42.3398 26.1408C42.6789 26.1538 42.954 26.2757 42.9851 26.4184C42.6063 26.319 42.166 26.3242 41.7153 26.3674C41.7032 26.3683 41.6894 26.37 41.6738 26.3717Z"
      fill="url(#paint5_linear_2_302)" />
    <path fill-rule="evenodd" clip-rule="evenodd"
      d="M43.1312 29.3922C43.4893 29.0826 43.7782 28.7521 43.9374 28.3992C43.9841 28.5342 43.8941 28.7893 43.7047 29.0272C43.5092 29.272 43.2722 29.419 43.1312 29.3922Z"
      fill="url(#paint6_linear_2_302)" />
    <path fill-rule="evenodd" clip-rule="evenodd"
      d="M35.6459 31.77C34.9426 31.988 34.0993 32.1445 33.0164 32.5986C30.0703 33.8346 29.9691 36.6215 29.8575 37.4701C29.8065 35.498 29.8325 35.2471 31.0045 33.2015C29.8204 34.1045 29.7209 34.2766 28.3689 36.5299C28.3681 36.5255 27.6259 34.8761 28.8871 32.8927C29.1292 32.5113 30.4224 30.5859 32.7768 29.8281C35.056 29.0947 35.5784 29.5012 38.3601 28.772C38.1473 29.3247 37.938 29.7685 37.7261 30.1292C37.8999 29.9769 38.0747 29.8178 38.2503 29.6508C38.2736 29.8653 38.4821 29.8835 38.5054 30.098C37.4562 35.1987 34.6114 36.4909 34.5309 36.5368C34.7134 35.927 34.671 35.9166 35.0274 35.0785L34.4574 35.2705C34.3899 35.0655 34.4963 34.7576 33.7706 34.7939C33.7637 34.7939 33.1435 35.011 33.2629 34.2637C33.4022 33.3935 34.3571 32.7145 35.645 31.7683L35.6459 31.77Z"
      fill="url(#paint7_linear_2_302)" />
    <path fill-rule="evenodd" clip-rule="evenodd"
      d="M61.5765 9.24901C61.8507 8.9134 63.0565 7.33658 63.7709 6.84009C64.8556 6.08671 66.3476 6.35485 67.1019 7.43951C67.8561 8.52417 67.5871 10.0162 66.5025 10.7696C65.7906 11.2644 63.9067 11.8802 63.4872 11.9979C62.5799 12.2521 61.6846 12.3369 61.1579 11.5783C60.6303 10.8198 60.9503 10.0145 61.5774 9.24901H61.5765Z"
      fill="url(#paint8_linear_2_302)" />
    <path fill-rule="evenodd" clip-rule="evenodd"
      d="M66.6738 10.639L67.9297 11.0473C67.9902 11.6848 67.7126 12.1121 67.1209 12.3439L65.9135 11.0966C66.1461 10.9859 66.3511 10.8752 66.5025 10.7705C66.5622 10.729 66.6193 10.6849 66.6746 10.639H66.6738Z"
      fill="url(#paint9_linear_2_302)" />
    <path fill-rule="evenodd" clip-rule="evenodd"
      d="M64.0304 6.68354C63.9421 6.72939 63.8548 6.78215 63.7709 6.84097C63.6411 6.93092 63.495 7.05721 63.341 7.20512L62.5902 5.63089C63.014 5.15689 63.5114 5.04618 64.0875 5.32469L64.0304 6.68354Z"
      fill="url(#paint10_linear_2_302)" />
    <path fill-rule="evenodd" clip-rule="evenodd"
      d="M63.5271 11.9866C63.5158 12.1337 63.252 12.285 62.9129 12.3318C62.5773 12.3785 62.285 12.3075 62.2288 12.1726C62.6197 12.2029 63.0522 12.1198 63.4873 11.9979C63.4994 11.9944 63.5124 11.991 63.5271 11.9866Z"
      fill="url(#paint11_linear_2_302)" />
    <path fill-rule="evenodd" clip-rule="evenodd"
      d="M61.5575 9.2724C61.2599 9.64001 61.0342 10.0163 60.9399 10.3925C60.8698 10.268 60.914 10.0007 61.0575 9.73343C61.2063 9.4575 61.4139 9.27154 61.5575 9.2724Z"
      fill="url(#paint12_linear_2_302)" />
    <path fill-rule="evenodd" clip-rule="evenodd"
      d="M71.1075 4.3499C71.4353 5.29962 71.1248 6.48635 70.2408 7.3219C69.3508 8.16264 68.1381 8.40137 67.2057 8.00868C66.9496 8.05798 66.1392 7.27779 65.8183 7.29682C66.7204 6.78736 67.3899 5.29789 67.2922 3.62333C67.1944 1.94877 66.3571 0.54753 65.4022 0.146189C66.2784 0.0951561 67.0898 0.593373 67.6373 1.40903C68.4607 1.93925 68.9762 3.22026 68.856 4.66388C68.8525 4.70713 68.8482 4.74951 68.8439 4.79189C68.8621 4.70367 68.8776 4.61457 68.8915 4.52462C69.1726 2.72118 68.5723 1.04315 67.6044 0.44114C69.1959 0.689384 70.2226 2.58884 69.8966 4.68118C69.849 4.98824 69.7746 5.28232 69.6769 5.55998C69.8464 5.23302 69.977 4.87752 70.0574 4.49867C70.4683 2.57673 69.4848 0.672085 67.9158 -0.000854492C69.977 0.440275 71.3419 2.34405 71.1066 4.34903L71.1075 4.3499Z"
      fill="url(#paint13_linear_2_302)" />
  </g>
  <defs>
    <linearGradient id="paint0_linear_2_302" x1="13.6249" y1="11.7955" x2="17.9064" y2="24.7699"
      gradientUnits="userSpaceOnUse">
      <stop offset="0.07" stop-color="#96B8FD" />
      <stop offset="0.37" stop-color="#1249D8" />
      <stop offset="0.69" stop-color="#1249D8" />
      <stop offset="1" stop-color="#3DE8FF" />
    </linearGradient>
    <linearGradient id="paint1_linear_2_302" x1="-0.638341" y1="15.142" x2="14.1525" y2="16.7854"
      gradientUnits="userSpaceOnUse">
      <stop offset="0.05" stop-color="#63D0FF" />
      <stop offset="0.47" stop-color="#1249D8" />
      <stop offset="0.68" stop-color="#1249D8" />
      <stop offset="0.96" stop-color="#FF86B9" />
    </linearGradient>
    <linearGradient id="paint2_linear_2_302" x1="42.2044" y1="27.4547" x2="26.9946" y2="40.8452"
      gradientUnits="userSpaceOnUse">
      <stop stop-color="#F67E20" />
      <stop offset="0.19" stop-color="#F88A17" />
      <stop offset="0.4" stop-color="#FFAB00" />
      <stop offset="0.67" stop-color="#FFEDCA" />
      <stop offset="1" stop-color="white" />
    </linearGradient>
    <linearGradient id="paint3_linear_2_302" x1="40.2352" y1="25.218" x2="25.0254" y2="38.6084"
      gradientUnits="userSpaceOnUse">
      <stop stop-color="#F67E20" />
      <stop offset="0.19" stop-color="#F88A17" />
      <stop offset="0.4" stop-color="#FFAB00" />
      <stop offset="0.67" stop-color="#FFEDCA" />
      <stop offset="1" stop-color="white" />
    </linearGradient>
    <linearGradient id="paint4_linear_2_302" x1="44.1737" y1="29.6915" x2="28.9638" y2="43.0819"
      gradientUnits="userSpaceOnUse">
      <stop stop-color="#F67E20" />
      <stop offset="0.19" stop-color="#F88A17" />
      <stop offset="0.4" stop-color="#FFAB00" />
      <stop offset="0.67" stop-color="#FFEDCA" />
      <stop offset="1" stop-color="white" />
    </linearGradient>
    <linearGradient id="paint5_linear_2_302" x1="42.0076" y1="27.231" x2="26.7978" y2="40.6215"
      gradientUnits="userSpaceOnUse">
      <stop stop-color="#F67E20" />
      <stop offset="0.19" stop-color="#F88A17" />
      <stop offset="0.4" stop-color="#FFAB00" />
      <stop offset="0.67" stop-color="#FFEDCA" />
      <stop offset="1" stop-color="white" />
    </linearGradient>
    <linearGradient id="paint6_linear_2_302" x1="43.7798" y1="29.2441" x2="28.5699" y2="42.6346"
      gradientUnits="userSpaceOnUse">
      <stop stop-color="#F67E20" />
      <stop offset="0.19" stop-color="#F88A17" />
      <stop offset="0.4" stop-color="#FFAB00" />
      <stop offset="0.67" stop-color="#FFEDCA" />
      <stop offset="1" stop-color="white" />
    </linearGradient>
    <linearGradient id="paint7_linear_2_302" x1="41.5581" y1="26.3549" x2="26.3478" y2="39.7457"
      gradientUnits="userSpaceOnUse">
      <stop stop-color="#F67E20" />
      <stop offset="0.19" stop-color="#F88A17" />
      <stop offset="0.4" stop-color="#FFAB00" />
      <stop offset="0.67" stop-color="#FFEDCA" />
      <stop offset="1" stop-color="white" />
    </linearGradient>
    <linearGradient id="paint8_linear_2_302" x1="62.6211" y1="11.5137" x2="71.4255" y2="2.86757"
      gradientUnits="userSpaceOnUse">
      <stop stop-color="#6A14DA" />
      <stop offset="1" stop-color="white" />
    </linearGradient>
    <linearGradient id="paint9_linear_2_302" x1="64.7513" y1="13.6829" x2="73.5557" y2="5.03683"
      gradientUnits="userSpaceOnUse">
      <stop stop-color="#6A14DA" />
      <stop offset="1" stop-color="white" />
    </linearGradient>
    <linearGradient id="paint10_linear_2_302" x1="60.3655" y1="9.21685" x2="69.17" y2="0.570764"
      gradientUnits="userSpaceOnUse">
      <stop stop-color="#6A14DA" />
      <stop offset="1" stop-color="white" />
    </linearGradient>
    <linearGradient id="paint11_linear_2_302" x1="63.1223" y1="12.0241" x2="71.9268" y2="3.37799"
      gradientUnits="userSpaceOnUse">
      <stop stop-color="#6A14DA" />
      <stop offset="1" stop-color="white" />
    </linearGradient>
    <linearGradient id="paint12_linear_2_302" x1="61.2427" y1="10.1101" x2="70.0472" y2="1.464"
      gradientUnits="userSpaceOnUse">
      <stop stop-color="#6A14DA" />
      <stop offset="1" stop-color="white" />
    </linearGradient>
    <linearGradient id="paint13_linear_2_302" x1="61.368" y1="10.2377" x2="70.1724" y2="1.59158"
      gradientUnits="userSpaceOnUse">
      <stop stop-color="#6A14DA" />
      <stop offset="1" stop-color="white" />
    </linearGradient>
    <clipPath id="clip0_2_302">
      <rect width="90" height="37.471" fill="white" />
    </clipPath>
  </defs>
</svg>