<svg width="1920" height="1080" viewBox="0 0 1920 1080" fill="none" xmlns="http://www.w3.org/2000/svg">
  <g clip-path="url(#clip0_8_11)">
    <mask id="mask0_8_11" style="mask-type:luminance" maskUnits="userSpaceOnUse" x="0" y="0" width="1920" height="1080">
      <path d="M1920 0H0V1080H1920V0Z" fill="white" />
    </mask>
    <g mask="url(#mask0_8_11)">
      <path d="M1920 0H0V1080H1920V0Z" fill="#144BDA" />
      <g style="mix-blend-mode:lighten">
        <path
          d="M1478.37 3188.88C2569.83 3188.88 3454.64 2585.89 3454.64 1842.07C3454.64 1098.25 2569.83 495.266 1478.37 495.266C386.902 495.266 -497.904 1098.25 -497.904 1842.07C-497.904 2585.89 386.902 3188.88 1478.37 3188.88Z"
          fill="url(#paint0_radial_8_11)" />
      </g>
      <g style="mix-blend-mode:lighten">
        <path
          d="M7079.79 -111.834C7079.79 277.868 6304.11 651.69 4922.67 927.771C3541.22 1203.85 1666.53 1359.7 -290.847 1361.17C-2248.22 1362.65 -4128.78 1209.64 -5520.7 935.647C-6912.61 661.653 -7702.47 289.013 -7717.31 -100.678C-7732.11 -490.368 -6970.73 -865.352 -5599.78 -1143.51C-4228.88 -1421.67 -2360.18 -1580.33 -402.914 -1584.76C1554.35 -1589.18 3440.69 -1439.01 4842.97 -1167.13C6245.29 -895.243 7049.3 -523.803 7078.93 -134.145L-318.863 -111.834H7079.79Z"
          fill="url(#paint1_radial_8_11)" />
      </g>
    </g>
  </g>
  <defs>
    <radialGradient id="paint0_radial_8_11" cx="0" cy="0" r="1" gradientUnits="userSpaceOnUse"
      gradientTransform="translate(1478.37 1842.07) rotate(90) scale(1346.8 2211.73)">
      <stop offset="0.445" stop-color="#FF86B9" stop-opacity="0.6" />
      <stop offset="0.87" stop-color="#FF86B9" stop-opacity="0" />
    </radialGradient>
    <radialGradient id="paint1_radial_8_11" cx="0" cy="0" r="1" gradientUnits="userSpaceOnUse"
      gradientTransform="translate(-318.863 -111.834) rotate(90) scale(1473.02 7398.65)">
      <stop offset="0.13" stop-color="#63D0FF" />
      <stop offset="0.375" stop-color="#63D0FF" stop-opacity="0.1294" />
      <stop offset="0.47" stop-color="#63D0FF" stop-opacity="0" />
    </radialGradient>
    <clipPath id="clip0_8_11">
      <rect width="1920" height="1080" fill="white" />
    </clipPath>
  </defs>
</svg>